<svg width="52" height="52" viewBox="0 0 52 52" fill="none" xmlns="http://www.w3.org/2000/svg">
<rect width="52" height="52" rx="8" fill="#0D0D0D"/>
<path d="M32.3082 22.1591C32.1188 21.5455 31.8575 20.9962 31.5241 20.5114C31.1984 20.0189 30.8045 19.5985 30.3423 19.25C29.8878 18.9015 29.3651 18.6402 28.7741 18.4659C28.1832 18.2841 27.5393 18.1932 26.8423 18.1932C25.5923 18.1932 24.4787 18.5076 23.5014 19.1364C22.5241 19.7652 21.7552 20.6894 21.1946 21.9091C20.6416 23.1212 20.3651 24.5985 20.3651 26.3409C20.3651 28.0985 20.6416 29.5871 21.1946 30.8068C21.7476 32.0265 22.5166 32.9545 23.5014 33.5909C24.4863 34.2197 25.6302 34.5341 26.9332 34.5341C28.1151 34.5341 29.1378 34.3068 30.0014 33.8523C30.8726 33.3977 31.5431 32.7538 32.0128 31.9205C32.4825 31.0795 32.7173 30.0947 32.7173 28.9659L33.6719 29.1136H27.3537V25.8182H36.7969V28.6136C36.7969 30.6061 36.3726 32.3295 35.5241 33.7841C34.6757 35.2386 33.509 36.3598 32.0241 37.1477C30.5393 37.928 28.8348 38.3182 26.9105 38.3182C24.7666 38.3182 22.884 37.8371 21.2628 36.875C19.6491 35.9053 18.3878 34.5303 17.4787 32.75C16.5772 30.9621 16.1264 28.8409 16.1264 26.3864C16.1264 24.5076 16.3916 22.8295 16.9219 21.3523C17.4598 19.875 18.2098 18.6212 19.1719 17.5909C20.134 16.553 21.2628 15.7652 22.5582 15.2273C23.8537 14.6818 25.2628 14.4091 26.7855 14.4091C28.0734 14.4091 29.2741 14.5985 30.3878 14.9773C31.5014 15.3485 32.4901 15.8788 33.3537 16.5682C34.2249 17.2576 34.9408 18.0758 35.5014 19.0227C36.062 19.9697 36.4295 21.0152 36.6037 22.1591H32.3082Z" fill="#ABABAB"/>
</svg>
